<svg xmlns="http://www.w3.org/2000/svg" viewBox="0 0 180 100">
  <rect width="180" height="100" fill="#ffffff" />
  <g
    fill="none"
    stroke="#2f7f78"
    stroke-linecap="round"
    stroke-linejoin="round"
    stroke-width="4"
  >
    <path d="M50 10 C34 26 31 44 39 63 C45 78 57 91 70 96" />
    <path d="M38 7 C22 25 20 51 31 72 C37 84 47 93 59 98" />
    <path d="M27 14 C13 32 11 54 21 74 C26 84 34 93 45 98" />
    <path d="M63 8 C74 26 78 45 70 63 C65 75 56 82 45 88" />
    <path d="M29 54 C20 53 13 56 7 64" />
    <path d="M10 57 C7 61 7 66 9 70" />
    <path d="M130 10 C146 26 149 44 141 63 C135 78 123 91 110 96" />
    <path d="M142 7 C158 25 160 51 149 72 C143 84 133 93 121 98" />
    <path d="M153 14 C167 32 169 54 159 74 C154 84 146 93 135 98" />
    <path d="M117 8 C106 26 102 45 110 63 C115 75 124 82 135 88" />
    <path d="M151 54 C160 53 167 56 173 64" />
    <path d="M170 57 C173 61 173 66 171 70" />
    <path d="M88 84 C96 72 105 70 117 70 C123 70 129 68 134 62" />
  </g>
</svg>
